<?xml version="1.0" encoding="UTF-8" standalone="no"?>
<!-- Generator: Adobe Illustrator 25.0.0, SVG Export Plug-In . SVG Version: 6.00 Build 0)  -->

<svg
   version="1.1"
   id="katman_1"
   x="0px"
   y="0px"
   width="36"
   height="36"
   viewBox="0 0 36 36"
   xml:space="preserve"
   sodipodi:docname="favicon.svg"
   inkscape:version="1.2 (dc2aedaf03, 2022-05-15)"
   xmlns:inkscape="http://www.inkscape.org/namespaces/inkscape"
   xmlns:sodipodi="http://sodipodi.sourceforge.net/DTD/sodipodi-0.dtd"
   xmlns="http://www.w3.org/2000/svg"
   xmlns:svg="http://www.w3.org/2000/svg"><defs
   id="defs10" /><sodipodi:namedview
   id="namedview8"
   pagecolor="#ffffff"
   bordercolor="#666666"
   borderopacity="1.0"
   inkscape:showpageshadow="2"
   inkscape:pageopacity="0.0"
   inkscape:pagecheckerboard="0"
   inkscape:deskcolor="#d1d1d1"
   showgrid="false"
   inkscape:zoom="23.194444"
   inkscape:cx="10.735329"
   inkscape:cy="18"
   inkscape:window-width="1920"
   inkscape:window-height="1051"
   inkscape:window-x="-9"
   inkscape:window-y="-9"
   inkscape:window-maximized="1"
   inkscape:current-layer="katman_1" />
<g
   id="Mwo17y_1_"
   transform="matrix(0.04035777,0,0,0.05440335,-1.8221965,-0.98223194)"
   style="fill:#da5290;fill-opacity:1">
	<g
   id="g4"
   style="fill:#da5290;fill-opacity:1">
		<path
   d="m 783.2,381.3 c 4.8,8.1 9.8,15.9 13.9,24 14,27.5 19.2,56.5 14.2,87.2 -7,42.3 -28.4,76.2 -61.4,102.8 -20.7,16.7 -44.2,27.8 -70.7,31.9 -31.7,4.8 -61,-1.3 -88.1,-18.7 -16.9,-10.9 -30.8,-24.9 -42.8,-41 -17.7,-23.9 -30,-50.5 -39.6,-78.4 -0.6,-1.5 -1,-3.1 -2.3,-4.5 0.3,5.7 0.9,11.5 1,17.3 0.2,19.4 1,38.8 0.2,58.1 -0.3,8.3 -3.3,16.7 -6,24.8 -1.2,3.7 -4.4,6.9 -7.2,10 -3.1,3.4 -4.8,3.1 -8.1,-0.1 -4.8,-4.4 -7.7,-9.9 -9.4,-16 -4,-13.5 -4.7,-27.3 -4.4,-41.1 0.4,-15 1.3,-29.9 1.9,-44.9 0.1,-2.4 0,-4.9 0,-8.5 -2.7,7.5 -5.1,14.1 -7.7,20.6 -9.8,25.3 -22.3,49.3 -39.7,70.3 -20.2,24.5 -44.6,43 -76,50.5 -35.3,8.4 -68.5,1.7 -99.6,-16 -27.7,-15.8 -49.3,-38.1 -64.6,-66 -13.6,-24.9 -20.5,-51.6 -19,-80.1 1.5,-26.9 10.2,-51.4 24.9,-73.8 1.5,-2.2 3,-4.4 4.4,-6.6 0.2,-0.3 0.3,-0.6 0.4,-1 -5.2,-1.4 -10.5,-2.3 -15.5,-4.1 -15.4,-5.5 -26.7,-16.3 -36.2,-29.1 -14.2,-19.1 -23.1,-40.9 -30.2,-63.4 -6.4,-20.3 -11,-41 -14,-62.1 -1.1,-7.8 -2.2,-15.7 -2.8,-23.5 -0.3,-3.7 -2.1,-6.2 -4.4,-8.8 C 80.5,175.2 67.7,158.6 58.4,139.6 52.6,127.7 48.2,115.5 48.2,102.1 48.2,83.5 57.9,69 75,61.5 c 14.4,-6.2 29.7,-7.9 45.1,-7.3 35.4,1.3 68.5,11.6 100.6,25.6 34.4,15.1 66.2,34.5 96,57.2 20.1,15.2 38.9,31.9 56.8,49.6 18.4,18.2 35.9,37.1 51.3,57.8 15.5,20.7 29.7,42.5 44.4,63.8 0.4,0.6 0.8,1.2 1.5,2.3 1.3,-4.2 3.2,-7.3 -0.1,-11.4 -3.1,-4 -1.9,-8.7 1.6,-12.7 0.7,-0.8 1,-2.7 0.6,-3.7 -10.6,-25.1 -22.7,-49.4 -37.7,-72.2 -9.6,-14.6 -20.5,-28.3 -30.8,-42.4 -0.4,-0.5 -0.8,-1 -1.2,-1.5 -1.8,-2.1 -3.6,-4.2 -1,-6.9 1.9,-1.9 5.3,-1.3 7.5,1.7 7.4,10 15,19.9 21.9,30.2 18.6,28.1 32.7,58.5 44.6,90.1 0.2,0.5 0.4,0.9 0.2,0.5 4.6,0.8 8.5,1.6 12.6,2.3 0.9,0.2 1.9,0 2.8,-0.2 3.8,-0.6 7.5,-1.2 12.3,-2 1,-2.7 2.7,-6.4 4.1,-10.2 9.9,-25.9 21.9,-50.9 36.9,-74.3 8,-12.5 17.2,-24.2 25.8,-36.3 0.5,-0.7 1.2,-1.6 1.9,-1.8 1.8,-0.2 3.7,-0.1 5.6,-0.1 0,1.8 0.7,4.2 -0.1,5.3 -4.6,6.3 -9.8,12.2 -14.4,18.4 -17.8,23.5 -32.7,48.9 -45.4,75.6 -3.7,7.7 -7,15.6 -10.6,23.4 -0.8,1.7 -0.9,2.7 0.6,4.2 3.5,3.5 4.6,8.3 1.8,12 -3.1,4 -1.9,7.4 -0.2,11.7 4.7,-7.3 9,-14.2 13.5,-21.1 19,-28.8 39.9,-55.9 63.1,-81.3 22,-24.1 45.8,-46.4 71.5,-66.4 27.3,-21.3 56.2,-39.9 87.3,-55 27.5,-13.3 55.9,-24 86.1,-29.2 21.9,-3.8 43.8,-5.3 65.5,1 14.8,4.4 27,12.3 32.8,27.6 4.2,11.2 3.2,22.6 0.1,33.8 -5.7,20.3 -16.9,37.7 -29.7,54.3 -5.1,6.6 -10.6,12.7 -15.8,19.2 -1.2,1.5 -2.2,3.7 -2.3,5.6 -3.1,32.7 -9.3,64.7 -20,95.7 -7.3,21.2 -16.6,41.6 -31.1,59.1 -12.3,14.8 -27,25.5 -46.7,27.8 -0.3,-0.3 -0.6,-0.1 -1.1,0 z m -247,-32.4 c 1.5,0.3 1.9,0.5 2.3,0.5 43.8,3.4 87.6,7.2 131.6,8 36,0.6 72,0.3 107.6,-6.4 11.3,-2.1 21.6,-6.5 29.9,-14.8 11,-11 8.1,-25.1 -6.7,-29.8 -6.4,-2.1 -13.2,-3.1 -19.9,-3.2 -19.1,-0.5 -38.2,0.1 -57.3,-0.4 -16.3,-0.4 -32.3,-3.5 -48,-7.8 -11.3,-3.1 -22.3,-3.1 -33.5,-0.2 -15.6,4 -29.7,11.6 -43.5,19.6 -16.8,9.7 -33.5,19.4 -50.4,29 -3.8,1.8 -7.6,3.3 -12.1,5.5 z m -92.8,0.3 c 0.1,-0.2 0.2,-0.5 0.2,-0.7 -0.8,-0.5 -1.7,-0.9 -2.5,-1.4 -11.6,-6.2 -23.4,-12.2 -34.8,-18.7 -17.7,-10.1 -34.6,-21.5 -53.5,-29.3 -15.9,-6.5 -31.9,-9 -48.9,-4 -9.8,2.9 -20.1,4.5 -30.3,6 -23.5,3.3 -47.2,3.1 -70.9,1.9 -8.8,-0.4 -17.3,0.6 -25.4,4.4 -10,4.6 -13.1,14.5 -7.3,23.9 4.5,7.4 11.5,11.9 19.1,15.4 10.6,4.9 22,6.1 33.3,7.5 28.3,3.4 56.8,4.4 85.2,3.3 35.5,-1.5 70.9,-3.6 106.4,-5.6 9.7,-0.9 19.6,-1.8 29.4,-2.7 z m 227.8,230 c 0.3,-0.1 0.6,-0.2 1,-0.3 -2.3,-7.3 -3.9,-14.8 -6.9,-21.8 -10.4,-23 -21.6,-45.7 -36,-66.5 -7.5,-10.8 -15.7,-21.2 -24.4,-31 -13.2,-15.2 -29.2,-27.3 -46.2,-37.9 -7.6,-4.8 -15.5,-8.9 -23.3,-13.1 -0.9,-0.5 -2.1,-0.3 -3.1,-0.4 0,1.2 -0.4,2.5 0.1,3.5 1.4,2.9 2.8,6 4.8,8.5 11.7,15.9 24,31.4 35.3,47.6 15.8,22.8 31,46.1 46.2,69.4 8.1,12.4 15.6,25.2 24,37.5 4.1,6.2 9.4,11.5 16.5,14.7 6.7,3.1 11.8,0.1 12.4,-7.3 -0.4,-1.1 -0.4,-2 -0.4,-2.9 z m -361.5,-3.5 c -0.2,13.9 5.2,17.3 14.1,12.5 7.8,-4.2 13.2,-10.9 17.8,-18.1 13.7,-21.2 26.6,-43 40.8,-63.9 16.8,-24.8 34.5,-48.9 51.8,-73.4 4.7,-6.7 9.4,-13.4 13.9,-20.2 0.8,-1.2 0.6,-3 0.9,-4.5 -1.5,0.2 -3.2,0.1 -4.5,0.7 -8.5,4.8 -17.2,9.5 -25.4,14.8 -26,16.5 -47.6,37.4 -64.9,62.7 -15.3,22.5 -27.7,46.7 -38.9,71.4 -3.1,6.9 -4.5,14.3 -5.6,18 z M 443.5,385.1 c -0.3,-0.1 -0.7,-0.2 -1,-0.2 -17.9,0.6 -35.7,0.8 -53.6,1.7 -22.3,1.1 -40.2,10.1 -51.2,30.6 -0.6,1.1 -2.2,1.9 -3.5,2.5 -7.7,3.4 -15.6,6.3 -23.1,10 -15.2,7.3 -22.1,20.6 -24.6,36.6 -0.3,2.1 0.5,5.5 1.9,6.3 1.7,1 4.8,0.2 6.9,-0.7 3.9,-1.5 7.4,-3.6 11.2,-5.4 16,-7.6 32.8,-13.1 50.2,-16.9 4.2,-0.9 8.9,-0.6 12.5,-4.4 6.4,-6.4 13.1,-12.4 20.2,-18.2 14.8,-12.3 30.4,-23.5 47.9,-31.9 4,-1.9 7.1,-4.6 6.2,-10 z m 93.7,-0.3 c 0.2,4.7 1.4,8 5.9,9.8 3.8,1.5 7.3,3.9 10.9,6 21.4,12.6 40.6,28 58.4,45.1 1.5,1.5 3.8,2.3 5.9,2.7 23.5,4.4 45.8,12.4 67.1,23.3 2.1,1 5.6,1.9 7.2,0.9 1.6,-1.1 2.5,-4.8 2.1,-7 -2.8,-15.7 -9.9,-28.8 -25,-36 -7.6,-3.6 -15.5,-6.6 -23.1,-10 -1.5,-0.6 -2.9,-1.9 -3.7,-3.3 -6,-9.7 -13.1,-18.1 -23.6,-23.1 -9.1,-4.4 -18.9,-6.2 -28.9,-6.6 -13.5,-0.6 -26.9,-0.6 -40.4,-1 -4.4,-0.2 -8.5,-0.5 -12.8,-0.8 z m -7,-42.5 c 1.5,-0.7 2.7,-1.1 3.7,-1.8 30.6,-17.5 61.3,-34.7 91.6,-52.6 27,-16 52.1,-34.8 74.6,-56.8 4.4,-4.2 8.1,-9.4 11,-14.7 2.9,-5.4 0.2,-9.8 -5.8,-11.5 -1.5,-0.4 -3.2,-0.7 -4.8,-0.8 -14,-0.6 -26.7,3.9 -37.7,12.1 -6.5,4.8 -11.7,11.3 -17,17.4 -22.1,25.5 -47.7,46.9 -74.8,66.7 -13.4,9.8 -27,19.4 -40.5,29.1 -1,0.7 -2.1,2.1 -2,3.1 0.2,3.3 1,6.4 1.7,9.8 z m -80.2,0 c 3.8,-9 3.4,-10.4 -3.8,-15.5 -26.5,-18.6 -53.1,-36.9 -77,-58.9 -12.7,-11.6 -24.7,-24.1 -36.1,-36.9 -7.3,-8.1 -14.4,-15.8 -24.4,-20.3 -9.5,-4.4 -19.3,-7.3 -29.9,-6.2 -9.5,1 -12.7,7.3 -7.6,15.3 2.7,4.2 6,8.1 9.6,11.5 24.1,23.3 51,42.8 79.8,59.9 19.1,11.4 38.5,22.3 57.9,33.3 10.5,6 20.9,11.8 31.5,17.8 z m 209.1,-64.8 c 0.1,0.4 0.1,0.9 0.2,1.3 1.6,0.4 3.2,1 4.9,1.3 15.5,1.5 31,3 46.5,4.6 25.3,2.6 50.5,2.2 75.6,-1.7 7.8,-1.2 15.2,-3.4 21,-9.3 5.8,-5.9 4.7,-13.2 -2.5,-17.3 -5.4,-3 -11.3,-3.1 -17.3,-3.1 -14.1,0.2 -28.2,0.8 -42.3,0.3 -12.4,-0.4 -24.8,-1.5 -37.1,-3.3 -6.4,-1 -11.6,-0.3 -16.6,3.5 -6.8,5.2 -13.6,10.3 -20.5,15.4 -3.8,2.9 -7.8,5.6 -11.9,8.3 z m -337.4,1.3 c 0.1,-0.3 0.1,-0.7 0.2,-1 -2.1,-1.5 -4.2,-3.1 -6.3,-4.6 -6.2,-4.4 -12.5,-8.9 -18.8,-13.3 -4.1,-2.9 -8,-6.2 -12.4,-8.5 -2.4,-1.3 -6,-2 -8.6,-1.4 -13.7,3.6 -27.7,3.8 -41.6,3.9 -13.5,0 -26.9,-0.2 -40.4,-0.4 -6.2,-0.1 -12.3,-0.1 -18,3.1 -6.9,4 -8.1,10.9 -2.7,16.7 4.7,5.2 10.7,8.1 17.5,9 12.1,1.6 24.2,3.2 36.4,3.9 29.8,1.6 59.3,-3.1 88.9,-5.8 1.9,-0.4 3.9,-1.1 5.8,-1.6 z M 723,565.5 c -0.1,-10.6 -3.7,-19.2 -9.1,-27.1 -7.5,-11 -15.2,-21.9 -23,-32.7 -5.2,-7.3 -9.8,-15.4 -17.7,-20.4 -6.3,-4 -12.7,-7.8 -19.4,-11 -6.4,-2.9 -13.1,-4.8 -19.8,-7 -0.9,-0.3 -2.5,0.2 -3,0.8 -0.4,0.6 -0.1,2.2 0.4,3.1 1.4,2.4 2.8,4.8 4.5,6.9 11.8,14.8 22,30.6 29.9,47.9 5.7,12.6 10.4,25.6 15.9,38.3 3.8,8.7 8.9,16.4 18.3,20.1 4.4,1.7 8.6,1.6 12.7,-0.6 7.7,-4.3 9.9,-11.2 10.3,-18.3 z M 350.7,468.4 c -0.3,-0.4 -0.6,-0.9 -1,-1.3 -2.4,0.4 -4.9,0.4 -7.3,1.2 -6,2.1 -12.1,4.2 -17.9,6.9 -10.9,5.2 -21.1,11.1 -28.2,21.4 -9.8,14 -19.9,27.8 -29.6,41.9 -5.2,7.7 -8.8,16.1 -8.8,25.6 0,6.9 1.8,13 7.1,17.6 6.6,5.6 16.2,4.6 23.5,-2.3 7,-6.6 10.6,-15.2 13.7,-24 7.3,-20.7 16.8,-40.3 29,-58.6 5,-7.5 10.6,-14.7 15.8,-22 1.6,-2.1 2.6,-4.3 3.7,-6.4 z m 103.4,-50.7 c -0.9,1.3 -1.2,1.7 -1.4,2.1 -11.8,24.5 -25,48.2 -40.1,70.9 -14.4,21.6 -30.4,41.9 -47.3,61.6 -5.4,6.3 -10.8,12.7 -15.2,19.6 -4,6.4 -0.6,13.3 6.6,15.4 7.2,2.1 14,0.6 20.1,-3.5 7,-4.6 10.6,-12.1 14.8,-18.8 12.7,-20.2 25.3,-40.6 37,-61.3 11,-19.6 20.5,-40.1 25.1,-62.3 1.7,-7.7 2.1,-15.3 0.4,-23.7 z m 72.7,0 c -1.9,7.2 -1.5,13.5 -0.5,19.9 2.3,14.4 7.4,27.9 13.4,41.1 10.4,23.1 23,45 36.5,66.4 7,11 14,22.1 21.5,32.7 6,8.5 14.8,11.9 25.2,9.8 7.9,-1.6 11.3,-8.5 7.7,-15.8 -1.5,-2.9 -3.2,-5.7 -5.3,-8.2 -11,-13.3 -22.3,-26.2 -33.1,-39.7 -20.6,-25.8 -38.1,-53.7 -53.5,-82.9 -3.7,-7.5 -7.5,-15 -11.9,-23.3 z M 296.4,396.4 c -18.5,0.8 -37,1.9 -54.8,7.4 -13.1,4.1 -22.8,13 -29.8,24.7 -3.1,5.2 -0.8,8.8 5.2,9.2 1.2,0.1 2.6,0.1 3.7,-0.2 5,-1.1 10.1,-2.2 15,-3.5 19.4,-5.4 38.6,-11 57.9,-16.4 9,-2.5 18,-4.5 26.9,-7.2 3,-0.9 6.6,-2.7 6.4,-6.5 -0.3,-4 -4.2,-4.8 -7.3,-5.2 -7.6,-1 -15.4,-1.6 -23.2,-2.3 z m 388.3,0.8 c -4.4,0 -8.9,-0.3 -13.2,0.1 -4.5,0.4 -9,1 -13.3,2.3 -1.8,0.5 -4.2,2.6 -4.3,4 -0.1,1.8 1.8,4 3.4,5.2 2,1.5 4.6,2.6 7.2,3.3 8.5,2.2 17.2,4 25.6,6.2 17.3,4.8 34.5,9.9 51.9,14.7 6.9,1.9 13.9,3.8 20.9,4.7 6.2,0.8 9.2,-3.5 6.3,-8.7 -6.7,-11.9 -16.3,-20.9 -29.5,-25.1 -18,-5.6 -36.4,-6.7 -55,-6.7 z m 9,38.6 c -0.2,0.3 -0.2,0.7 -0.4,1 0.4,0.5 0.7,1 1.2,1.4 8.5,7.7 15.7,16.3 19.4,27.4 0.3,1 1.8,1.9 2.9,2.5 9.8,5.3 19.8,10.3 29.5,15.8 6.4,3.6 12.5,7.6 19.9,8.5 10.9,1.4 17.4,-5.6 15.4,-16.5 -2.5,-13.2 -10.9,-21.7 -23.2,-25.2 -17.1,-4.9 -34.6,-8.7 -51.9,-12.8 -4.2,-0.9 -8.5,-1.4 -12.8,-2.1 z M 287.5,436 c -1.8,0.2 -3.3,0.1 -4.8,0.4 -14.7,3.1 -29.4,5.9 -43.9,9.4 -7.4,1.8 -14.8,4.1 -21.7,7.3 -10.2,4.8 -16.8,13.1 -18.1,24.8 -1,9.6 5.3,16.3 14.7,14.6 5.9,-1.1 11.7,-3.6 17.1,-6.5 9.8,-5 19.1,-11 29.1,-15.9 4.5,-2.2 7.8,-4.4 9,-9.4 0.5,-2.1 1.8,-4.2 3.1,-6 5,-6.1 10.1,-12.1 15.5,-18.7 z m 453.2,105 c 2.6,-1 7.2,-1.9 11.1,-4.2 10.8,-6.2 12.7,-17.7 4.5,-27.1 -2.1,-2.4 -4.7,-4.8 -7.5,-6.2 -15,-7.7 -30.1,-15.2 -45.3,-22.3 -2.2,-1 -6,-1.4 -7.7,-0.1 -2.6,2 -0.6,5.4 0.7,7.9 7.9,14 15.8,28.1 24,41.9 4.1,6.6 10.7,9.5 20.2,10.1 z m -500.2,-0.2 c 8.7,0.1 16,-3.8 19.8,-10.3 7.8,-13.5 15.6,-27 23.2,-40.6 1,-1.9 1.8,-3.9 2.2,-6 0.6,-2.7 -0.9,-4.3 -3.5,-4 -2.4,0.3 -5,1 -7.2,2 -9.4,4.4 -18.8,9 -28.1,13.8 -6.9,3.6 -14.2,7.2 -20.3,12 -10,7.7 -9.7,19.8 0.2,27.7 4.3,3.5 9.5,5.2 13.7,5.4 z m 467,-303.1 c 19,1.1 36.9,0.2 54,-6.3 7.7,-2.9 14.9,-6.9 19.4,-14.3 6.2,-10.2 1.2,-20.2 -10.7,-20.2 -6,-0.1 -12.4,1 -17.9,3.4 -18.2,7.8 -31.6,21.7 -44.8,37.4 z m -434.3,0.1 c -13,-15.5 -26.1,-29 -43.8,-37.2 -7.4,-3.4 -15.2,-5.4 -23.4,-3 -8.1,2.4 -11,9.8 -7.5,17.3 2.9,6.1 7.9,10.2 13.6,13.1 19,10.1 39.5,10.7 61.1,9.8 z m 245.5,171.9 c -13.3,66.1 20.1,132.6 65,170.4 -0.6,-1.4 -0.9,-2.1 -1.3,-2.8 -11.9,-21.6 -23.8,-43.1 -35.5,-64.9 -11.9,-22.4 -20.9,-45.8 -24.8,-71 -1.6,-10.5 -2.3,-21.2 -3.4,-31.7 z m -56,0.3 c -0.3,-0.2 -0.7,-0.3 -1,-0.5 -0.2,4.1 -0.5,8.2 -0.7,12.3 -1.3,19.9 -5.6,39.3 -12.5,58.1 -10.2,27.5 -25.5,52.3 -39.6,77.9 -4,7.1 -7.7,14.3 -11.5,21.5 0.4,0.2 0.7,0.3 1.1,0.5 48.6,-46.3 74,-101.3 64.2,-169.8 z M 892,100.1 c 0.1,-12.3 -10,-22.7 -21.9,-22.7 -12.4,-0.1 -22.7,10.1 -22.7,22.3 -0.1,12.3 9.9,22.3 22.2,22.4 12.4,0 22.3,-9.8 22.4,-22 z M 89,99.7 c -0.1,12.2 9.8,22.3 21.8,22.3 12.7,0.1 22.7,-9.7 22.7,-22.2 0,-12.3 -10,-22.4 -22.2,-22.5 -12.1,0 -22.2,10.1 -22.3,22.4 z m 254.9,281.1 c 0,-0.3 -0.1,-0.6 -0.1,-0.9 -3.7,-0.4 -7.5,-0.8 -11.2,-1.4 -25.6,-3.5 -51.2,-4.6 -76.7,0.5 -7.4,1.5 -14.6,4.4 -21.8,6.9 -1.4,0.5 -2.3,2.4 -3.4,3.6 1.5,0.9 3,2.3 4.6,2.5 3.7,0.3 7.6,0.5 11.3,-0.1 9.2,-1.4 18.2,-3.7 27.4,-4.8 17.3,-2.1 34.5,-3.6 51.8,-5.3 6.1,-0.4 12.1,-0.6 18.1,-1 z m 293.5,-0.1 c 1.1,0.2 2.2,0.3 3.3,0.4 29.6,1.6 59.1,4 88.2,10.2 5.7,1.2 11.9,0.6 18,0.5 1.1,0 2.2,-1.4 3.2,-2.1 -0.8,-1 -1.4,-2.7 -2.4,-3.1 -5.2,-2.3 -10.3,-4.8 -15.7,-6.1 -31.5,-7.5 -63.1,-5.1 -94.6,0.2 z M 223.5,141.9 c 0,8.8 7.6,16.5 16.3,16.4 8.8,-0.1 16.2,-7.6 16.2,-16.5 0,-9 -7.2,-16.2 -16.3,-16.1 -9.1,-0.1 -16.2,7 -16.2,16.2 z m 517.6,-16.3 c -9,0 -16.2,7.3 -16.1,16.4 0.1,8.7 7.4,16.3 16,16.3 8.7,0.1 16.3,-7.5 16.3,-16.4 0,-9.2 -7.2,-16.3 -16.2,-16.3 z m -438.2,56.6 c -0.2,7.7 5.9,13.8 13.5,13.9 7.4,0 13.4,-6 13.5,-13.4 0.1,-7.3 -6,-13.5 -13.3,-13.7 -7.4,-0.2 -13.6,5.8 -13.7,13.2 z m 375.1,0.1 c 0,-7.4 -6,-13.5 -13.3,-13.5 -6.5,0 -13.7,5.2 -13.5,13.6 0.2,7.7 6.1,13.5 13.7,13.5 7.5,-0.1 13.1,-5.9 13.1,-13.6 z M 844,172 c 0,6.7 5.5,12 12,11.9 6.4,-0.2 11.7,-5.6 11.6,-12 0,-6.5 -5.6,-12 -12.1,-11.9 -6.4,0.2 -11.5,5.5 -11.5,12 z m -707.3,-0.1 c 0,-6.5 -5.2,-11.8 -11.6,-11.9 -6.2,-0.1 -11.8,5.4 -11.9,11.8 -0.1,6.3 5.4,12 11.5,12.1 6.6,0.1 12,-5.3 12,-12 z m 664,-51.2 c 6,0.2 10.6,-4.4 10.7,-10.3 0.1,-5.9 -4.1,-10.2 -9.9,-10.5 -6,-0.2 -10.8,4.2 -11,10 -0.2,5.8 4.4,10.6 10.2,10.8 z m -620.7,0 c 6,0 10.4,-4.6 10.4,-10.6 -0.1,-5.9 -4.6,-10.2 -10.8,-10.2 -5.6,0 -10.1,4.5 -10.1,10.2 0.1,6.1 4.6,10.6 10.5,10.6 z m 642.9,77.4 c -0.1,-4 -3.9,-7.7 -7.9,-7.6 -4,0.1 -7.7,3.8 -7.7,7.8 0.1,4.1 3.7,7.6 7.9,7.5 4.3,0 7.8,-3.5 7.7,-7.7 z m -649.5,0 c -0.1,-4.2 -3.7,-7.7 -7.8,-7.6 -4,0.1 -7.7,3.9 -7.7,7.8 0.1,4.1 3.7,7.6 7.9,7.5 4.2,0 7.6,-3.4 7.6,-7.7 z m 665.8,47.1 c 4.2,0 7.3,-3.3 7.3,-7.5 -0.1,-4 -3.3,-7.3 -7.2,-7.3 -4,-0.1 -7.4,3.4 -7.5,7.5 0,4 3.3,7.3 7.4,7.3 z M 148.8,238 c 0.1,-4.2 -3.1,-7.6 -7.2,-7.7 -4,-0.1 -7.5,3.5 -7.4,7.5 0,4 3.1,7.2 7.1,7.3 4.1,0.2 7.5,-2.9 7.5,-7.1 z M 622,222.8 c 0,-3.5 -3.5,-7 -7,-6.9 -3.6,0.1 -6.6,3.1 -6.7,6.8 -0.1,4 2.7,6.9 6.8,6.9 3.7,0.1 6.9,-3 6.9,-6.8 z m -263.1,0.1 c 0,3.7 3.3,6.9 7.1,6.8 4,-0.1 6.7,-3.1 6.6,-7.1 -0.1,-3.7 -3.1,-6.7 -6.8,-6.7 -3.5,0 -6.9,3.5 -6.9,7 z M 732,187.7 c 3.5,0 6.5,-3.1 6.5,-6.5 -0.1,-3.5 -3.1,-6.5 -6.6,-6.3 -3.4,0.1 -6.1,2.9 -6.2,6.3 -0.3,3.6 2.7,6.5 6.3,6.5 z m -483.2,0 c 3.5,0 6.5,-3.1 6.4,-6.5 -0.2,-3.4 -3,-6.2 -6.3,-6.3 -3.4,-0.1 -6.5,3.1 -6.3,6.6 0.1,3.4 3,6.2 6.2,6.2 z m 547.7,-23.5 c 3,0.1 5.5,-2.4 5.5,-5.6 0,-2.9 -2.3,-5.3 -5.2,-5.5 -2.9,-0.2 -5.6,2.4 -5.6,5.3 -0.1,3.2 2.3,5.7 5.3,5.8 z M 184.6,153.1 c -2.7,-0.2 -5.3,2.2 -5.6,5.1 -0.2,3.1 2.1,5.7 5.1,6 2.7,0.2 5.3,-2.2 5.6,-5.1 0.2,-2.9 -2.2,-5.8 -5.1,-6 z"
   id="path2"
   style="fill:#da5290;fill-opacity:1" />
	</g>
</g>
</svg>
